<?xml version="1.0" encoding="UTF-8" standalone="no"?>
<svg
   width="16"
   height="16"
   version="1.1"
   id="svg4"
   sodipodi:docname="open-menu.svg"
   inkscape:version="1.1.1 (3bf5ae0d25, 2021-09-20)"
   xmlns:inkscape="http://www.inkscape.org/namespaces/inkscape"
   xmlns:sodipodi="http://sodipodi.sourceforge.net/DTD/sodipodi-0.dtd"
   xmlns="http://www.w3.org/2000/svg"
   xmlns:svg="http://www.w3.org/2000/svg">
  <defs
     id="defs8" />
  <sodipodi:namedview
     id="namedview6"
     pagecolor="#ffffff"
     bordercolor="#666666"
     borderopacity="1.0"
     inkscape:pageshadow="2"
     inkscape:pageopacity="0.0"
     inkscape:pagecheckerboard="0"
     showgrid="false"
     inkscape:zoom="39.25"
     inkscape:cx="8"
     inkscape:cy="7.9872611"
     inkscape:window-width="1882"
     inkscape:window-height="1080"
     inkscape:window-x="1958"
     inkscape:window-y="0"
     inkscape:window-maximized="1"
     inkscape:current-layer="svg4" />
  <path
     style="fill:#444444;stroke-width:0.847294"
     d="M 9.6945879,2.9162363 A 1.6945878,1.6945878 0 0 0 8,1.2216484 1.6945878,1.6945878 0 0 0 6.3054122,2.9162363 1.6945878,1.6945878 0 0 0 8,4.610824 1.6945878,1.6945878 0 0 0 9.6945879,2.9162363 Z m 0,5.0837635 A 1.6945878,1.6945878 0 0 0 8,6.3054119 1.6945878,1.6945878 0 0 0 6.3054122,7.9999998 1.6945878,1.6945878 0 0 0 8,9.6945879 1.6945878,1.6945878 0 0 0 9.6945879,7.9999998 Z m 0,5.0837652 A 1.6945878,1.6945878 0 0 0 8,11.389176 1.6945878,1.6945878 0 0 0 6.3054122,13.083765 1.6945878,1.6945878 0 0 0 8,14.778352 1.6945878,1.6945878 0 0 0 9.6945879,13.083765 Z"
     id="path2" />
</svg>
